<svg xmlns="http://www.w3.org/2000/svg" version="1.1" xmlns:xlink="http://www.w3.org/1999/xlink" xmlnsSvgjs="http://svgjs.com/svgjs" width="512" height="512" x="0" y="0" viewBox="0 0 511.311 511.311" style="enable-background:new 0 0 512 512" xml:space="preserve" className=""><g><path d="m222.424 160.107v244.443h76.811c15.282 0 27.671-12.388 27.671-27.67v-216.773z" fill="#00558c" data-original="#00558c" className=""></path><path d="m192.004 273.339c12.353-4.113 19.03-17.462 14.916-29.814l-23.572-70.775 20.78-6.44 54.295-15.77c12.434-3.854 19.392-17.058 15.539-29.494-3.854-12.435-17.059-19.392-29.494-15.538l-55.642 16.188-42.427 13.148c-12.653 3.921-19.549 17.47-15.388 29.965l31.179 93.614c4.114 12.352 17.462 19.03 29.814 14.916z" fill="#00558c" data-original="#00558c" className=""></path><path d="m402.193 200.679c-.977-.451-1.905-1.053-2.749-1.808-4.564-4.082-4.954-11.091-.872-15.654l44.55-49.803c4.082-4.563 11.091-4.953 15.654-.872 4.564 4.082 4.954 11.091.872 15.654l-44.55 49.803c-3.327 3.72-8.599 4.666-12.905 2.68z" fill="#0073aa" data-original="#0073aa" className=""></path><ellipse cx="470.929" cy="118.956" fill="#a0ebff" rx="29.315" ry="29.315" transform="matrix(.193 -.981 .981 .193 263.465 558.141)" data-original="#a0ebff"></ellipse><path d="m443.994 149.068c-16.603-14.852-18.028-40.444-3.177-57.048 14.855-16.604 40.446-18.025 57.047-3.177 16.603 14.852 18.029 40.443 3.177 57.048-14.885 16.642-40.402 18.066-57.047 3.177zm13.348-42.265c-6.701 7.491-6.058 19.038 1.433 25.739 7.507 6.717 19.023 6.077 25.74-1.433 6.701-7.492 6.058-19.038-1.433-25.74-7.492-6.701-19.038-6.057-25.74 1.434z" fill="#0091c8" data-original="#0091c8"></path><path d="m325.791 481.409-10.83-115.664-118.329-47.768c-15.192-5.902-22.723-23.001-16.821-38.192 5.901-15.191 23.001-22.723 38.192-16.821l135.324 54.37c10.416 4.047 17.653 13.63 18.695 24.756l12.53 133.817c1.519 16.226-10.403 30.613-26.63 32.132-16.267 1.523-30.615-10.442-32.131-26.63z" fill="#373c41" data-original="#373c41" className=""></path><path d="m6.043 496.549c-9.881-12.961-7.384-31.477 5.576-41.358l101.241-77.183 55.636-117.623c6.968-14.733 24.56-21.026 39.294-14.058 14.732 6.969 21.026 24.561 14.058 39.294l-58.708 124.117c-2.018 4.267-5.031 7.988-8.785 10.85l-106.953 81.538c-13.039 9.94-31.538 7.304-41.359-5.577z" fill="#50555a" data-original="#50555a"></path><path d="m327.469 132.172-59.566-24.932c-17.171-7.187-36.917.907-44.104 18.078l-111.455 250.51 95.607 40.017c18.573 7.774 39.924-1.073 47.554-19.706l90.041-219.863c7.188-17.17-.906-36.917-18.077-44.104z" fill="#0073aa" data-original="#0073aa" className=""></path><path d="m396.265 75.594c-5.45-26.578-31.415-43.706-57.993-38.255s-43.705 31.415-38.255 57.993 31.415 43.706 57.993 38.255 43.705-31.416 38.255-57.993z" fill="#ba6746" data-original="#ba6746"></path><path d="m420.617 49.469c-2.384-11.625-38.627-14.014-80.951-5.334s-74.701 25.14-72.317 36.765 38.627 14.014 80.951 5.334c42.323-8.679 74.701-25.139 72.317-36.765z" fill="#50555a" data-original="#50555a"></path><path d="m382.448 21.039c-3.118-11.904-15.106-19.627-27.238-17.566-4.4.748-8.296 2.635-11.453 5.302-5.991 5.06-14.271 6.758-21.771 4.465-3.952-1.209-8.276-1.411-12.616-.366-11.964 2.88-19.944 14.698-18.125 26.868.131.875.308 1.729.526 2.563l6.58 32.084 91.237-18.71-7.105-34.647z" fill="#696e73" data-original="#696e73"></path><path d="m295.341 44.724h93.135v20.518h-93.135z" fill="#82878c" transform="matrix(.98 -.201 .201 .98 -4.075 69.807)" data-original="#82878c"></path><path d="m428.824 180.271c-5.969-11.57-20.188-16.11-31.757-10.141l5.731 27.019 15.886 14.878c11.569-5.969 16.109-20.187 10.14-31.756z" fill="#ba6746" data-original="#ba6746"></path><g fill="#0091c8"><path d="m217.823 269.539-15.553 36.867c-3.985 9.446.442 20.335 9.889 24.32l14.446 6.094c9.447 3.985 20.335-.442 24.32-9.889l15.553-36.867z" fill="#0091c8" data-original="#0091c8"></path><path d="m397.066 170.13-66.294 34.203-33.521-70.753c-5.725-11.691-19.844-16.53-31.537-10.805-11.692 5.725-16.529 19.845-10.804 31.537l44.108 92.373c5.826 11.897 20.275 16.621 31.979 10.583l87.687-45.242z" fill="#0091c8" data-original="#0091c8"></path></g></g></svg>