<svg xmlns="http://www.w3.org/2000/svg" version="1.1" xmlns:xlink="http://www.w3.org/1999/xlink" xmlnsSvgjs="http://svgjs.com/svgjs" width="512" height="512" x="0" y="0" viewBox="0 0 32 32" style="enable-background:new 0 0 512 512" xml:space="preserve" className=""><g><path clip-rule="evenodd" d="m27.2 16c0 6.1856-5.0144 11.2-11.2 11.2-6.18559 0-11.2-5.0144-11.2-11.2 0-6.18559 5.01441-11.2 11.2-11.2 6.1856 0 11.2 5.01441 11.2 11.2zm.8 0c0 6.6274-5.3726 12-12 12-6.62742 0-12-5.3726-12-12 0-6.62742 5.37258-12 12-12 6.6274 0 12 5.37258 12 12zm-16.5-2c.8284 0 1.5-.6716 1.5-1.5s-.6716-1.5-1.5-1.5-1.5.6716-1.5 1.5.6716 1.5 1.5 1.5zm10.5-1.5c0 .8284-.6716 1.5-1.5 1.5s-1.5-.6716-1.5-1.5.6716-1.5 1.5-1.5 1.5.6716 1.5 1.5zm-10.151 8.7217c-.1605.1518-.4137.1448-.5655-.0156-.1518-.1605-.1448-.4137.0156-.5655 2.1061-1.9927 5.1893-2.8403 8.1704-1.9552.2118.0628.3325.2855.2696.4973s-.2855.3325-.4973.2696c-2.6962-.8005-5.4857-.0351-7.3928 1.7694z" fill="#306291" fill-rule="evenodd" data-original="#000000" className=""></path></g></svg>